<svg xmlns="http://www.w3.org/2000/svg" xmlns:xlink="http://www.w3.org/1999/xlink" version="1.1" x="0px" y="0px" viewBox="0 0 512 640" enable-background="new 0 0 512 512" xml:space="preserve"><g><g><g><g><path d="M212.005,511.975c-2.211,0-4-1.789-4-4V279.998h-39.996v227.977c0,2.211-1.789,4-3.999,4c-2.211,0-4-1.789-4-4V275.998      c0-2.211,1.789-4,4-4h47.995c2.211,0,3.999,1.789,3.999,4v231.977C216.004,510.186,214.216,511.975,212.005,511.975z"/></g></g><g><g><path d="M323.994,511.975c-2.211,0-4-1.789-4-4V279.998h-39.996v227.977c0,2.211-1.789,4-3.999,4c-2.211,0-4-1.789-4-4V275.998      c0-2.211,1.789-4,4-4h47.995c2.21,0,3.999,1.789,3.999,4v231.977C327.993,510.186,326.204,511.975,323.994,511.975z"/></g></g><g><g><path d="M172.009,263.999c-2.211,0-4-1.789-4-3.999v-55.995c0-2.21,1.789-4,4-4s3.999,1.789,3.999,4V260      C176.008,262.21,174.22,263.999,172.009,263.999z"/></g></g><g><g><path d="M204.006,208.005h-31.997c-2.211,0-4-1.789-4-4c0-2.21,1.789-4,4-4h31.997c2.21,0,3.999,1.789,3.999,4      C208.005,206.216,206.216,208.005,204.006,208.005z"/></g></g><g><g><path d="M204.006,263.999c-2.211,0-4-1.789-4-3.999v-55.995c0-2.21,1.789-4,4-4c2.21,0,3.999,1.789,3.999,4V260      C208.005,262.21,206.216,263.999,204.006,263.999z"/></g></g><g><g><path d="M283.998,263.999c-2.211,0-4-1.789-4-3.999v-55.995c0-2.21,1.789-4,4-4c2.21,0,3.999,1.789,3.999,4V260      C287.997,262.21,286.208,263.999,283.998,263.999z"/></g></g><g><g><path d="M315.995,208.005h-31.997c-2.211,0-4-1.789-4-4c0-2.21,1.789-4,4-4h31.997c2.21,0,3.999,1.789,3.999,4      C319.994,206.216,318.205,208.005,315.995,208.005z"/></g></g><g><g><path d="M315.995,263.999c-2.211,0-4-1.789-4-3.999v-55.995c0-2.21,1.789-4,4-4c2.21,0,3.999,1.789,3.999,4V260      C319.994,262.21,318.205,263.999,315.995,263.999z"/></g></g><g><g><path d="M180.008,511.975c-2.211,0-4-1.789-4-4V291.996c0-2.211,1.789-3.999,4-3.999s4,1.788,4,3.999v215.979      C184.008,510.186,182.219,511.975,180.008,511.975z"/></g></g><g><g><path d="M196.006,511.975c-2.21,0-3.999-1.789-3.999-4V291.996c0-2.211,1.789-3.999,3.999-3.999c2.211,0,4,1.788,4,3.999      v215.979C200.006,510.186,198.217,511.975,196.006,511.975z"/></g></g><g><g><path d="M291.997,511.975c-2.211,0-4-1.789-4-4V291.996c0-2.211,1.789-3.999,4-3.999s4,1.788,4,3.999v215.979      C295.997,510.186,294.208,511.975,291.997,511.975z"/></g></g><g><g><path d="M307.995,511.975c-2.211,0-3.999-1.789-3.999-4V291.996c0-2.211,1.788-3.999,3.999-3.999s4,1.788,4,3.999v215.979      C311.995,510.186,310.206,511.975,307.995,511.975z"/></g></g><g><g><path d="M236.002,511.975c-2.21,0-3.999-1.789-3.999-4v-303.97c0-2.21,1.789-4,3.999-4c2.211,0,4,1.789,4,4v303.97      C240.002,510.186,238.213,511.975,236.002,511.975z"/></g></g><g><g><path d="M252.001,511.975c-2.211,0-4-1.789-4-4v-303.97c0-2.21,1.789-4,4-4s3.999,1.789,3.999,4v303.97      C256,510.186,254.212,511.975,252.001,511.975z"/></g></g><g><g><path d="M188.007,263.999c-2.211,0-3.999-1.789-3.999-3.999v-39.997c0-2.21,1.788-4,3.999-4s4,1.789,4,4V260      C192.007,262.21,190.218,263.999,188.007,263.999z"/></g></g><g><g><path d="M299.996,263.999c-2.211,0-3.999-1.789-3.999-3.999v-39.997c0-2.21,1.788-4,3.999-4s4,1.789,4,4V260      C303.996,262.21,302.207,263.999,299.996,263.999z"/></g></g><g><g><path d="M267.999,208.005h-47.995c-2.211,0-4-1.789-4-4c0-2.21,1.789-4,4-4h47.995c2.211,0,4,1.789,4,4      C271.999,206.216,270.21,208.005,267.999,208.005z"/></g></g><g><g><path d="M188.007,192.006c-2.211,0-3.999-1.789-3.999-4v-39.996c0-2.211,1.788-4,3.999-4s4,1.789,4,4v39.996      C192.007,190.217,190.218,192.006,188.007,192.006z"/></g></g><g><g><path d="M299.996,192.006c-2.211,0-3.999-1.789-3.999-4v-39.996c0-2.211,1.788-4,3.999-4s4,1.789,4,4v39.996      C303.996,190.217,302.207,192.006,299.996,192.006z"/></g></g><g><g><path d="M299.996,152.01c-0.609,0-1.219-0.137-1.789-0.422c-0.133-0.066-15.959-7.578-54.205-7.578      c-38.606,0-54.054,7.5-54.206,7.578c-1.973,0.977-4.375,0.188-5.366-1.789c-0.988-1.977-0.188-4.379,1.788-5.367      c0.688-0.344,17.308-8.421,57.784-8.421c40.479,0,57.096,8.077,57.783,8.421c1.977,0.988,2.772,3.391,1.789,5.367      C302.871,151.202,301.465,152.01,299.996,152.01z"/></g></g><g><g><path d="M283.998,168.009h-79.992c-2.211,0-4-1.789-4-4c0-2.21,1.789-3.999,4-3.999h79.992c2.21,0,3.999,1.789,3.999,3.999      C287.997,166.22,286.208,168.009,283.998,168.009z"/></g></g><g><g><path d="M220.004,168.009c-2.211,0-4-1.789-4-4v-7.999c0-2.211,1.789-4,4-4s4,1.789,4,4v7.999      C224.004,166.22,222.215,168.009,220.004,168.009z"/></g></g><g><g><path d="M236.002,168.009c-2.21,0-3.999-1.789-3.999-4v-7.999c0-2.211,1.789-4,3.999-4c2.211,0,4,1.789,4,4v7.999      C240.002,166.22,238.213,168.009,236.002,168.009z"/></g></g><g><g><path d="M252.001,168.009c-2.211,0-4-1.789-4-4v-7.999c0-2.211,1.789-4,4-4s3.999,1.789,3.999,4v7.999      C256,166.22,254.212,168.009,252.001,168.009z"/></g></g><g><g><path d="M267.999,168.009c-2.211,0-3.999-1.789-3.999-4v-7.999c0-2.211,1.788-4,3.999-4s4,1.789,4,4v7.999      C271.999,166.22,270.21,168.009,267.999,168.009z"/></g></g><g><g><path d="M228.003,192.006c-2.211,0-3.999-1.789-3.999-4v-7.999c0-2.211,1.788-4,3.999-4s4,1.789,4,4v7.999      C232.003,190.217,230.214,192.006,228.003,192.006z"/></g></g><g><g><path d="M204.006,192.006c-2.211,0-4-1.789-4-4v-7.999c0-2.211,1.789-4,4-4c2.21,0,3.999,1.789,3.999,4v7.999      C208.005,190.217,206.216,192.006,204.006,192.006z"/></g></g><g><g><path d="M260,192.006c-2.211,0-4-1.789-4-4v-7.999c0-2.211,1.789-4,4-4s4,1.789,4,4v7.999      C264,190.217,262.211,192.006,260,192.006z"/></g></g><g><g><path d="M283.998,192.006c-2.211,0-4-1.789-4-4v-7.999c0-2.211,1.789-4,4-4c2.21,0,3.999,1.789,3.999,4v7.999      C287.997,190.217,286.208,192.006,283.998,192.006z"/></g></g><g><g><path d="M244.002,192.006c-2.211,0-4-1.789-4-4v-7.999c0-2.211,1.789-4,4-4c2.21,0,3.999,1.789,3.999,4v7.999      C248.001,190.217,246.212,192.006,244.002,192.006z"/></g></g><g><g><path d="M236.006,144.12c-0.062,0-0.125,0-0.184-0.004c-2.206-0.102-3.917-1.968-3.815-4.175l3.999-88.101      c0.102-2.21,2.211-3.976,4.176-3.816c2.207,0.102,3.918,1.969,3.816,4.175l-4,88.101      C239.9,142.449,238.131,144.12,236.006,144.12z"/></g></g><g><g><path d="M248.001,56.02h-7.999c-2.211,0-4-1.789-4-4s1.789-4,4-4h7.999c2.211,0,4,1.789,4,4S250.212,56.02,248.001,56.02z"/></g></g><g><g><path d="M251.981,144.12c-2.125,0-3.895-1.675-3.992-3.819L244.006,52.2c-0.102-2.207,1.608-4.074,3.815-4.175      c1.992-0.184,4.074,1.609,4.176,3.816l3.983,88.101c0.102,2.207-1.608,4.073-3.815,4.175      C252.106,144.12,252.044,144.12,251.981,144.12z"/></g></g><g><g><path d="M244.002,56.02c-2.211,0-4-1.789-4-4V4.024c0-2.21,1.789-3.999,4-3.999c2.21,0,3.999,1.789,3.999,3.999V52.02      C248.001,54.23,246.212,56.02,244.002,56.02z"/></g></g></g><g><g><path d="M124.014,80.018H60.02c-6.616,0-11.999-5.383-11.999-11.999c0-6.617,5.383-11.999,11.999-11.999h4.684     c-0.441-1.25-0.684-2.597-0.684-4c0-6.617,5.382-11.999,11.998-11.999h22.799c4.602-9.675,14.397-15.999,25.197-15.999     c15.436,0,27.997,12.562,27.997,27.998S139.449,80.018,124.014,80.018z M60.02,64.019c-2.207,0-3.999,1.793-3.999,4     s1.792,4,3.999,4h63.994c11.026,0,19.998-8.972,19.998-19.998c0-11.026-8.972-19.998-19.998-19.998     c-8.387,0-15.925,5.359-18.76,13.338c-0.566,1.594-2.078,2.66-3.77,2.66H76.018c-2.206,0-3.999,1.793-3.999,4s1.793,4,3.999,4     c2.211,0,4,1.789,4,4c0,2.21-1.789,3.999-4,3.999H60.02z"/></g></g><g><g><path d="M435.982,120.014h-71.993c-6.616,0-11.998-5.383-11.998-11.999c0-6.617,5.382-11.999,11.998-11.999h4.688     c-0.445-1.25-0.688-2.598-0.688-4c0-6.617,5.383-11.999,11.999-11.999h30.794c4.594-9.675,14.389-15.999,25.2-15.999     c15.437,0,27.997,12.562,27.997,27.998S451.419,120.014,435.982,120.014z M363.989,104.015c-2.202,0-3.999,1.793-3.999,4     s1.797,4,3.999,4h71.993c11.03,0,19.998-8.972,19.998-19.998s-8.968-19.998-19.998-19.998c-8.39,0-15.936,5.359-18.764,13.334     c-0.562,1.598-2.069,2.664-3.765,2.664h-33.466c-2.203,0-3.999,1.793-3.999,4s1.796,4,3.999,4c2.211,0,3.999,1.789,3.999,4     c0,2.21-1.788,3.999-3.999,3.999H363.989z"/></g></g></g><text x="0" y="527" fill="#000000" font-size="5px" font-weight="bold" font-family="'Helvetica Neue', Helvetica, Arial-Unicode, Arial, Sans-serif">Created by lastspark</text><text x="0" y="532" fill="#000000" font-size="5px" font-weight="bold" font-family="'Helvetica Neue', Helvetica, Arial-Unicode, Arial, Sans-serif">from the Noun Project</text></svg>